<svg width="32" height="32" viewBox="0 0 32 32" fill="none" xmlns="http://www.w3.org/2000/svg">
    <path
        fill-rule="evenodd" 
        clip-rule="evenodd"
        fill="black" 
        d="M11.0821 6.54289C11.4726 6.93342 11.4726 7.56658 11.0821 7.95711L8.41421 10.625H19.4375C21.4432 10.625 23.3668 11.4218 24.785 12.84C26.2032 14.2582 27 16.1818 27 18.1875C27 20.1932 26.2032 22.1168 24.785 23.535C23.3668 24.9532 21.4432 25.75 19.4375 25.75H14.75C14.1977 25.75 13.75 25.3023 13.75 24.75C13.75 24.1977 14.1977 23.75 14.75 23.75H19.4375C20.9128 23.75 22.3276 23.164 23.3708 22.1208C24.414 21.0776 25 19.6628 25 18.1875C25 16.7122 24.414 15.2974 23.3708 14.2542C22.3276 13.211 20.9128 12.625 19.4375 12.625H8.41421L11.0821 15.2929C11.4726 15.6834 11.4726 16.3166 11.0821 16.7071C10.6916 17.0976 10.0584 17.0976 9.66789 16.7071L5.29289 12.3321C4.90237 11.9416 4.90237 11.3084 5.29289 10.9179L9.66789 6.54289C10.0584 6.15237 10.6916 6.15237 11.0821 6.54289Z"
    />
</svg>
