<svg width="32" height="32" viewBox="0 0 32 32" fill="none" xmlns="http://www.w3.org/2000/svg">
<path d="M5.5 8C4.94772 8 4.5 8.44772 4.5 9C4.5 9.55228 4.94772 10 5.5 10V8ZM26.5 10C27.0523 10 27.5 9.55228 27.5 9C27.5 8.44772 27.0523 8 26.5 8V10ZM5.5 15C4.94772 15 4.5 15.4477 4.5 16C4.5 16.5523 4.94772 17 5.5 17V15ZM26.5 17C27.0523 17 27.5 16.5523 27.5 16C27.5 15.4477 27.0523 15 26.5 15V17ZM5.5 22C4.94772 22 4.5 22.4477 4.5 23C4.5 23.5523 4.94772 24 5.5 24V22ZM26.5 24C27.0523 24 27.5 23.5523 27.5 23C27.5 22.4477 27.0523 22 26.5 22V24ZM5.5 10H26.5V8H5.5V10ZM5.5 17H26.5V15H5.5V17ZM5.5 24H26.5V22H5.5V24Z" fill="white"/>
</svg>
