<svg width="32" height="32" viewBox="0 0 32 32" fill="none" xmlns="http://www.w3.org/2000/svg">
<path d="M16 17.8943L9.37002 24.5243C9.12196 24.7724 8.80624 24.8964 8.42288 24.8964C8.03951 24.8964 7.72379 24.7724 7.47573 24.5243C7.22767 24.2763 7.10364 23.9605 7.10364 23.5772C7.10364 23.1938 7.22767 22.8781 7.47573 22.63L14.1058 16L7.47573 9.36999C7.22767 9.12193 7.10364 8.80621 7.10364 8.42285C7.10364 8.03948 7.22767 7.72376 7.47573 7.4757C7.72379 7.22764 8.03951 7.10361 8.42288 7.10361C8.80624 7.10361 9.12196 7.22764 9.37002 7.4757L16 14.1057L22.6301 7.4757C22.8781 7.22764 23.1938 7.10361 23.5772 7.10361C23.9606 7.10361 24.2763 7.22764 24.5244 7.4757C24.7724 7.72376 24.8965 8.03948 24.8965 8.42285C24.8965 8.80621 24.7724 9.12193 24.5244 9.36999L17.8943 16L24.5244 22.63C24.7724 22.8781 24.8965 23.1938 24.8965 23.5772C24.8965 23.9605 24.7724 24.2763 24.5244 24.5243C24.2763 24.7724 23.9606 24.8964 23.5772 24.8964C23.1938 24.8964 22.8781 24.7724 22.6301 24.5243L16 17.8943Z" fill="white"/>
</svg>
