<svg width="32" height="32" viewBox="0 0 32 32" fill="none" xmlns="http://www.w3.org/2000/svg">
<path d="M31 22H30.38C28.4756 22.0044 26.6304 21.3385 25.1677 20.119C23.705 18.8995 22.7181 17.2041 22.38 15.33C21.62 11.44 19.89 4.94 16 4.94C12.11 4.94 10.31 11.45 9.62 15.33C9.27769 17.2004 8.28901 18.8911 6.82672 20.1067C5.36443 21.3222 3.52152 21.9853 1.62 21.98H1C0.734784 21.98 0.48043 21.8746 0.292893 21.6871C0.105357 21.4995 0 21.2452 0 20.98C0 20.7148 0.105357 20.4604 0.292893 20.2729C0.48043 20.0853 0.734784 19.98 1 19.98H1.6C3.02364 19.9789 4.40221 19.4807 5.49767 18.5715C6.59313 17.6623 7.33671 16.3991 7.6 15C9.01 7.12 11.9 3 15.95 3C20 3 22.88 7.16 24.28 15C24.5391 16.4027 25.2809 17.6706 26.3768 18.5838C27.4727 19.497 28.8535 19.998 30.28 20H31C31.2652 20 31.5196 20.1053 31.7071 20.2929C31.8946 20.4804 32 20.7348 32 21C32 21.2652 31.8946 21.5195 31.7071 21.7071C31.5196 21.8946 31.2652 22 31 22Z" fill="white"/>
<path d="M31 29H1C0.734784 29 0.48043 28.8946 0.292893 28.7071C0.105357 28.5196 0 28.2652 0 28C0 27.7348 0.105357 27.4804 0.292893 27.2929C0.48043 27.1054 0.734784 27 1 27H31C31.2652 27 31.5196 27.1054 31.7071 27.2929C31.8946 27.4804 32 27.7348 32 28C32 28.2652 31.8946 28.5196 31.7071 28.7071C31.5196 28.8946 31.2652 29 31 29Z" fill="white"/>
</svg>
