<svg width="32" height="32" viewBox="0 0 32 32" fill="none" xmlns="http://www.w3.org/2000/svg">
<path fill-rule="evenodd" clip-rule="evenodd" d="M16 4.00001C9.37262 4.00001 4.00004 9.37259 4.00004 16C4.00004 22.6274 9.37262 28 16 28C22.6275 28 28 22.6274 28 16C28 9.37259 22.6275 4.00001 16 4.00001ZM1.33337 16C1.33337 7.89983 7.89986 1.33334 16 1.33334C24.1002 1.33334 30.6667 7.89983 30.6667 16C30.6667 24.1002 24.1002 30.6667 16 30.6667C7.89986 30.6667 1.33337 24.1002 1.33337 16ZM16 9.33334C16.7364 9.33334 17.3334 9.9303 17.3334 10.6667V16C17.3334 16.7364 16.7364 17.3333 16 17.3333C15.2637 17.3333 14.6667 16.7364 14.6667 16V10.6667C14.6667 9.9303 15.2637 9.33334 16 9.33334ZM14.6667 21.3333C14.6667 20.597 15.2637 20 16 20H16.0134C16.7498 20 17.3467 20.597 17.3467 21.3333C17.3467 22.0697 16.7498 22.6667 16.0134 22.6667H16C15.2637 22.6667 14.6667 22.0697 14.6667 21.3333Z" fill="white"/>
</svg>
