<svg width="32" height="32" viewBox="0 0 32 32" fill="none" xmlns="http://www.w3.org/2000/svg">
<path d="M27.6916 14.9235V27.8462C27.6916 28.4174 27.4647 28.9653 27.0608 29.3692C26.6569 29.7731 26.109 30 25.5378 30H6.15378C5.58256 30 5.03474 29.7731 4.63083 29.3692C4.22692 28.9653 4 28.4174 4 27.8462V14.9235C4 14.3523 4.22692 13.8045 4.63083 13.4006C5.03474 12.9967 5.58256 12.7698 6.15378 12.7698H9.38445C9.67006 12.7698 9.94397 12.8832 10.1459 13.0852C10.3479 13.2871 10.4613 13.561 10.4613 13.8466C10.4613 14.1323 10.3479 14.4062 10.1459 14.6081C9.94397 14.8101 9.67006 14.9235 9.38445 14.9235H6.15378V27.8462H25.5378V14.9235H22.3071C22.0215 14.9235 21.7476 14.8101 21.5457 14.6081C21.3437 14.4062 21.2302 14.1323 21.2302 13.8466C21.2302 13.561 21.3437 13.2871 21.5457 13.0852C21.7476 12.8832 22.0215 12.7698 22.3071 12.7698H25.5378C26.109 12.7698 26.6569 12.9967 27.0608 13.4006C27.4647 13.8045 27.6916 14.3523 27.6916 14.9235ZM11.2232 9.22409L14.7689 5.67708V18.1542C14.7689 18.4398 14.8824 18.7137 15.0843 18.9157C15.2863 19.1176 15.5602 19.2311 15.8458 19.2311C16.1314 19.2311 16.4053 19.1176 16.6073 18.9157C16.8092 18.7137 16.9227 18.4398 16.9227 18.1542V5.67708L20.4683 9.22409C20.6704 9.42616 20.9445 9.53968 21.2302 9.53968C21.516 9.53968 21.7901 9.42616 21.9921 9.22409C22.1942 9.02202 22.3077 8.74796 22.3077 8.46219C22.3077 8.17642 22.1942 7.90236 21.9921 7.70029L16.6077 2.31584C16.5077 2.21571 16.3889 2.13628 16.2582 2.08209C16.1274 2.02789 15.9873 2 15.8458 2C15.7043 2 15.5641 2.02789 15.4334 2.08209C15.3027 2.13628 15.1839 2.21571 15.0839 2.31584L9.69944 7.70029C9.49737 7.90236 9.38385 8.17642 9.38385 8.46219C9.38385 8.74796 9.49738 9.02202 9.69944 9.22409C9.90151 9.42616 10.1756 9.53968 10.4613 9.53968C10.7471 9.53968 11.0212 9.42616 11.2232 9.22409Z" fill="white"/>
</svg>
