<svg width="32" height="32" viewBox="0 0 32 32" fill="none" xmlns="http://www.w3.org/2000/svg">
<path d="M19.2933 10.04C19.3848 10.1383 19.4952 10.2171 19.6179 10.2717C19.7406 10.3264 19.873 10.3558 20.0073 10.3581C20.1415 10.3605 20.2749 10.3358 20.3994 10.2855C20.5239 10.2352 20.6371 10.1604 20.732 10.0654C20.827 9.97044 20.9018 9.85733 20.9521 9.73281C21.0024 9.60829 21.0271 9.47492 21.0247 9.34065C21.0224 9.20638 20.993 9.07396 20.9383 8.9513C20.8837 8.82863 20.8049 8.71823 20.7066 8.62668L16.7066 4.62668C16.5191 4.43941 16.265 4.33423 16 4.33423C15.735 4.33423 15.4808 4.43941 15.2933 4.62668L11.2933 8.62668C11.1167 8.81625 11.0205 9.06698 11.0251 9.32605C11.0296 9.58511 11.1346 9.83229 11.3178 10.0155C11.501 10.1987 11.7482 10.3037 12.0073 10.3082C12.2663 10.3128 12.5171 10.2167 12.7066 10.04L15 7.74668V18.6667C15 18.9319 15.1053 19.1863 15.2929 19.3738C15.4804 19.5613 15.7347 19.6667 16 19.6667C16.2652 19.6667 16.5195 19.5613 16.7071 19.3738C16.8946 19.1863 17 18.9319 17 18.6667V7.74668L19.2933 10.04Z" fill="white"/>
<path d="M27.6667 16C27.6667 15.7348 27.5614 15.4804 27.3738 15.2929C27.1863 15.1054 26.9319 15 26.6667 15C26.4015 15 26.1471 15.1054 25.9596 15.2929C25.7721 15.4804 25.6667 15.7348 25.6667 16C25.6667 17.2694 25.4167 18.5265 24.9309 19.6993C24.4451 20.8721 23.733 21.9377 22.8354 22.8354C21.9378 23.733 20.8721 24.445 19.6993 24.9308C18.5265 25.4166 17.2695 25.6667 16 25.6667C14.7306 25.6667 13.4736 25.4166 12.3008 24.9308C11.128 24.445 10.0623 23.733 9.16468 22.8354C8.26704 21.9377 7.555 20.8721 7.06921 19.6993C6.58341 18.5265 6.33337 17.2694 6.33337 16C6.33337 15.7348 6.22802 15.4804 6.04048 15.2929C5.85294 15.1054 5.59859 15 5.33337 15C5.06816 15 4.8138 15.1054 4.62627 15.2929C4.43873 15.4804 4.33337 15.7348 4.33337 16C4.33337 19.0942 5.56254 22.0617 7.75046 24.2496C9.93839 26.4375 12.9058 27.6667 16 27.6667C19.0942 27.6667 22.0617 26.4375 24.2496 24.2496C26.4375 22.0617 27.6667 19.0942 27.6667 16Z" fill="white"/>
</svg>
