<svg width="32" height="32" viewBox="0 0 32 32" fill="none" xmlns="http://www.w3.org/2000/svg">
<path d="M4.54844 20.326L3.3599 21.2411L3.35992 21.2411L4.54844 20.326ZM4.54844 11.674L3.35992 10.7589L3.3595 10.7594L4.54844 11.674ZM27.4516 11.674L28.6409 10.76L28.6401 10.7589L27.4516 11.674ZM27.4516 20.326L28.6401 21.2411L28.6405 21.2406L27.4516 20.326ZM5.73697 19.4109C5.15216 18.6513 4.85737 18.2547 4.66548 17.8203C4.49563 17.4357 4.375 16.9383 4.375 16H1.375C1.375 17.2129 1.53328 18.154 1.92123 19.0324C2.28716 19.8609 2.82909 20.5517 3.3599 21.2411L5.73697 19.4109ZM4.375 16C4.375 15.061 4.49566 14.564 4.66537 14.18C4.85731 13.7456 5.15198 13.3496 5.73737 12.5886L3.3595 10.7594C2.82927 11.4487 2.28722 12.1394 1.92135 12.9674C1.53325 13.8456 1.375 14.7865 1.375 16H4.375ZM5.73695 12.5891C7.82913 9.87188 11.1757 7 16 7V4C9.84656 4 5.72237 7.69062 3.35992 10.7589L5.73695 12.5891ZM16 7C20.8243 7 24.1709 9.87188 26.263 12.5891L28.6401 10.7589C26.2776 7.69062 22.1534 4 16 4V7ZM26.2622 12.588C26.8477 13.3499 27.1426 13.7463 27.3346 14.181C27.5044 14.5651 27.625 15.0618 27.625 16H30.625C30.625 14.787 30.4667 13.8465 30.0786 12.9684C29.7129 12.1407 29.171 11.4498 28.6409 10.76L26.2622 12.588ZM27.625 16C27.625 16.939 27.5043 17.436 27.3346 17.82C27.1427 18.2544 26.848 18.6504 26.2626 19.4114L28.6405 21.2406C29.1707 20.5513 29.7128 19.8606 30.0786 19.0326C30.4667 18.1544 30.625 17.2135 30.625 16H27.625ZM26.263 19.4109C24.1709 22.1281 20.8243 25 16 25V28C22.1534 28 26.2776 24.3094 28.6401 21.2411L26.263 19.4109ZM16 25C11.1757 25 7.82913 22.1281 5.73695 19.4109L3.35992 21.2411C5.72237 24.3094 9.84656 28 16 28V25Z" fill="white"/>
<path d="M19 16C19 16.7956 18.6839 17.5587 18.1213 18.1213C17.5587 18.6839 16.7956 19 16 19C15.2044 19 14.4413 18.6839 13.8787 18.1213C13.3161 17.5587 13 16.7956 13 16C13 15.2044 13.3161 14.4413 13.8787 13.8787C14.4413 13.3161 15.2044 13 16 13C16.7956 13 17.5587 13.3161 18.1213 13.8787C18.6839 14.4413 19 15.2044 19 16Z" fill="white"/>
</svg>
