<svg width="32" height="32" viewBox="0 0 32 32" fill="none" xmlns="http://www.w3.org/2000/svg">
<path d="M12 17.4H20.4M12 23H16.2M5 4.8V27.2C5 27.9426 5.295 28.6548 5.8201 29.1799C6.3452 29.705 7.05739 30 7.8 30H24.6C25.3426 30 26.0548 29.705 26.5799 29.1799C27.105 28.6548 27.4 27.9426 27.4 27.2V10.8788C27.3999 10.5058 27.3254 10.1365 27.1806 9.79274C27.0359 9.44895 26.8239 9.13754 26.5572 8.8768L20.3412 2.798C19.8181 2.28652 19.1156 2.00009 18.384 2H7.8C7.05739 2 6.3452 2.295 5.8201 2.8201C5.295 3.3452 5 4.05739 5 4.8Z" stroke="#0075EB" stroke-width="2" stroke-linecap="round" stroke-linejoin="round"/>
<path d="M19 2V7.6C19 8.34261 19.295 9.0548 19.8201 9.5799C20.3452 10.105 21.0574 10.4 21.8 10.4H27.4" stroke="#0075EB" stroke-width="2" stroke-linejoin="round"/>
</svg>
