<svg width="32" height="32" viewBox="0 0 32 32" fill="none" xmlns="http://www.w3.org/2000/svg">
<path d="M25.3333 4H6.66663C4.78129 4 3.83863 4 3.25329 4.54933C2.66663 5.09867 2.66663 5.984 2.66663 7.75333V8.67333C2.66663 10.056 2.66663 10.748 3.01329 11.3213C3.35996 11.8947 3.99063 12.252 5.25596 12.964L9.13996 15.1507C9.98796 15.628 10.4133 15.8667 10.7173 16.1307C11.3493 16.6787 11.7386 17.324 11.9146 18.1173C12 18.496 12 18.9413 12 19.8307V23.3907C12 24.6027 12 25.2093 12.336 25.6813C12.672 26.1547 13.2693 26.388 14.4613 26.8547C16.9666 27.8333 18.2186 28.3227 19.1093 27.7653C20 27.2093 20 25.936 20 23.3893V19.8293C20 18.9413 20 18.496 20.0853 18.116C20.2527 17.3389 20.6745 16.6398 21.284 16.1293C21.5866 15.8667 22.012 15.628 22.86 15.1493L26.744 12.9627C28.008 12.252 28.6413 11.896 28.9866 11.3227C29.3333 10.7493 29.3333 10.056 29.3333 8.672V7.752C29.3333 5.984 29.3333 5.09867 28.7466 4.54933C28.1626 4 27.22 4 25.3333 4Z" stroke="white" stroke-width="2"/>
</svg>
