<svg width="32" height="32" viewBox="0 0 32 32" fill="none" xmlns="http://www.w3.org/2000/svg">
<mask id="path-1-outside-1_129_1437" maskUnits="userSpaceOnUse" x="1" y="1" width="30" height="30" fill="black">
<rect  x="1" y="1" width="30" height="30"/>
<path fill-rule="evenodd" clip-rule="evenodd" d="M6.0624 6.04787C11.5115 0.605758 20.3709 0.663195 25.853 6.14695C31.338 11.6321 31.3955 20.496 25.9449 25.9453C20.4958 31.3946 11.6321 31.3386 6.14712 25.8534C4.60427 24.3169 3.43856 22.4437 2.74148 20.3808C2.04441 18.3179 1.83495 16.1215 2.12955 13.9641C2.1682 13.6809 2.31775 13.4247 2.54529 13.2518C2.77283 13.079 3.05972 13.0036 3.34286 13.0422C3.626 13.0809 3.88218 13.2304 4.05506 13.458C4.22794 13.6855 4.30334 13.9724 4.26469 14.2556C4.01462 16.0839 4.1919 17.9454 4.78262 19.6936C5.37333 21.4419 6.36138 23.0294 7.66914 24.3314C12.3285 28.9895 19.8281 29.0168 24.4229 24.4233C29.0162 19.8283 28.989 12.3286 24.331 7.66902C19.6745 3.01379 12.1792 2.98363 7.58442 7.57138L8.65845 7.57568C8.79988 7.57634 8.93978 7.60485 9.07019 7.65958C9.20059 7.71432 9.31894 7.7942 9.41847 7.89467C9.518 7.99513 9.59677 8.11423 9.65028 8.24514C9.70379 8.37605 9.73099 8.51622 9.73033 8.65765C9.72967 8.79907 9.70116 8.93898 9.64644 9.06939C9.59171 9.1998 9.51183 9.31815 9.41136 9.41768C9.31089 9.51722 9.19181 9.59599 9.0609 9.6495C8.92999 9.70301 8.78982 9.73022 8.6484 9.72956L4.99268 9.71232C4.7088 9.71081 4.43701 9.59727 4.23642 9.3964C4.03582 9.19553 3.92265 8.92358 3.92152 8.6397L3.90285 4.98673C3.9021 4.84531 3.9292 4.70512 3.98263 4.57417C4.03605 4.44322 4.11474 4.32408 4.21421 4.22354C4.31367 4.12301 4.43197 4.04305 4.56233 3.98823C4.6927 3.93341 4.83259 3.90481 4.97401 3.90405C5.11543 3.9033 5.25562 3.93041 5.38656 3.98383C5.5175 4.03726 5.63665 4.11595 5.73718 4.21542C5.83771 4.31489 5.91767 4.43318 5.97248 4.56356C6.0273 4.69393 6.0559 4.83382 6.05666 4.97524L6.0624 6.04787ZM15.9986 9.17816C16.2842 9.17816 16.5582 9.29163 16.7601 9.49359C16.9621 9.69556 17.0755 9.96948 17.0755 10.2551V15.5536L20.3508 18.8275C20.4537 18.9268 20.5357 19.0456 20.5923 19.177C20.6488 19.3083 20.6785 19.4496 20.6798 19.5926C20.6811 19.7356 20.654 19.8774 20.5999 20.0098C20.5458 20.1422 20.4659 20.2625 20.3648 20.3636C20.2638 20.4648 20.1436 20.5448 20.0112 20.599C19.8789 20.6532 19.7371 20.6806 19.5941 20.6794C19.4511 20.6782 19.3098 20.6486 19.1784 20.5922C19.047 20.5358 18.9281 20.4538 18.8287 20.351L14.9232 16.4453V10.2565C14.9232 9.97091 15.0366 9.69699 15.2386 9.49503C15.4405 9.29306 15.7145 9.1796 16.0001 9.1796"/>
</mask>
<path fill-rule="evenodd" clip-rule="evenodd" d="M6.0624 6.04787C11.5115 0.605758 20.3709 0.663195 25.853 6.14695C31.338 11.6321 31.3955 20.496 25.9449 25.9453C20.4958 31.3946 11.6321 31.3386 6.14712 25.8534C4.60427 24.3169 3.43856 22.4437 2.74148 20.3808C2.04441 18.3179 1.83495 16.1215 2.12955 13.9641C2.1682 13.6809 2.31775 13.4247 2.54529 13.2518C2.77283 13.079 3.05972 13.0036 3.34286 13.0422C3.626 13.0809 3.88218 13.2304 4.05506 13.458C4.22794 13.6855 4.30334 13.9724 4.26469 14.2556C4.01462 16.0839 4.1919 17.9454 4.78262 19.6936C5.37333 21.4419 6.36138 23.0294 7.66914 24.3314C12.3285 28.9895 19.8281 29.0168 24.4229 24.4233C29.0162 19.8283 28.989 12.3286 24.331 7.66902C19.6745 3.01379 12.1792 2.98363 7.58442 7.57138L8.65845 7.57568C8.79988 7.57634 8.93978 7.60485 9.07019 7.65958C9.20059 7.71432 9.31894 7.7942 9.41847 7.89467C9.518 7.99513 9.59677 8.11423 9.65028 8.24514C9.70379 8.37605 9.73099 8.51622 9.73033 8.65765C9.72967 8.79907 9.70116 8.93898 9.64644 9.06939C9.59171 9.1998 9.51183 9.31815 9.41136 9.41768C9.31089 9.51722 9.19181 9.59599 9.0609 9.6495C8.92999 9.70301 8.78982 9.73022 8.6484 9.72956L4.99268 9.71232C4.7088 9.71081 4.43701 9.59727 4.23642 9.3964C4.03582 9.19553 3.92265 8.92358 3.92152 8.6397L3.90285 4.98673C3.9021 4.84531 3.9292 4.70512 3.98263 4.57417C4.03605 4.44322 4.11474 4.32408 4.21421 4.22354C4.31367 4.12301 4.43197 4.04305 4.56233 3.98823C4.6927 3.93341 4.83259 3.90481 4.97401 3.90405C5.11543 3.9033 5.25562 3.93041 5.38656 3.98383C5.5175 4.03726 5.63665 4.11595 5.73718 4.21542C5.83771 4.31489 5.91767 4.43318 5.97248 4.56356C6.0273 4.69393 6.0559 4.83382 6.05666 4.97524L6.0624 6.04787ZM15.9986 9.17816C16.2842 9.17816 16.5582 9.29163 16.7601 9.49359C16.9621 9.69556 17.0755 9.96948 17.0755 10.2551V15.5536L20.3508 18.8275C20.4537 18.9268 20.5357 19.0456 20.5923 19.177C20.6488 19.3083 20.6785 19.4496 20.6798 19.5926C20.6811 19.7356 20.654 19.8774 20.5999 20.0098C20.5458 20.1422 20.4659 20.2625 20.3648 20.3636C20.2638 20.4648 20.1436 20.5448 20.0112 20.599C19.8789 20.6532 19.7371 20.6806 19.5941 20.6794C19.4511 20.6782 19.3098 20.6486 19.1784 20.5922C19.047 20.5358 18.9281 20.4538 18.8287 20.351L14.9232 16.4453V10.2565C14.9232 9.97091 15.0366 9.69699 15.2386 9.49503C15.4405 9.29306 15.7145 9.1796 16.0001 9.1796" />
<path d="M6.0624 6.04787L5.7624 6.04948L5.76625 6.76763L6.2744 6.26014L6.0624 6.04787ZM25.853 6.14695L25.6408 6.35905L25.6409 6.35908L25.853 6.14695ZM25.9449 25.9453L25.7328 25.7332L25.7328 25.7332L25.9449 25.9453ZM6.14712 25.8534L6.35925 25.6413L6.35881 25.6409L6.14712 25.8534ZM2.12955 13.9641L2.42679 14.0047L2.42679 14.0046L2.12955 13.9641ZM4.26469 14.2556L4.56192 14.2962L4.56193 14.2961L4.26469 14.2556ZM7.66914 24.3314L7.88124 24.1192L7.8808 24.1188L7.66914 24.3314ZM24.4229 24.4233L24.635 24.6354L24.6351 24.6354L24.4229 24.4233ZM24.331 7.66902L24.5432 7.45692L24.5431 7.45686L24.331 7.66902ZM7.58442 7.57138L7.37245 7.35908L6.86227 7.86848L7.58322 7.87137L7.58442 7.57138ZM8.65845 7.57568L8.65985 7.27569L8.65966 7.27569L8.65845 7.57568ZM8.6484 9.72956L8.64699 10.0296L8.647 10.0296L8.6484 9.72956ZM4.99268 9.71232L4.99108 10.0123L4.99126 10.0123L4.99268 9.71232ZM3.92152 8.6397L4.22151 8.6385L4.22151 8.63816L3.92152 8.6397ZM3.90285 4.98673L4.20285 4.9852L4.20285 4.98513L3.90285 4.98673ZM6.05666 4.97524L5.75666 4.97684V4.97685L6.05666 4.97524ZM17.0755 15.5536H16.7755V15.6779L16.8634 15.7658L17.0755 15.5536ZM20.3508 18.8275L20.1386 19.0397L20.1424 19.0434L20.3508 18.8275ZM18.8287 20.351L19.0445 20.1425L19.0409 20.1389L18.8287 20.351ZM14.9232 16.4453H14.6232V16.5696L14.711 16.6575L14.9232 16.4453ZM14.9232 10.2565H15.2232H14.9232ZM6.2744 6.26014C11.6043 0.937088 20.2738 0.990397 25.6408 6.35905L26.0652 5.93485C20.468 0.335993 11.4187 0.274429 5.8504 5.8356L6.2744 6.26014ZM25.6409 6.35908C31.0109 11.7292 31.0641 20.4031 25.7328 25.7332L26.157 26.1575C31.7269 20.5889 31.6652 11.5351 26.0651 5.93482L25.6409 6.35908ZM25.7328 25.7332C20.4029 31.0633 11.7292 31.0114 6.35925 25.6413L5.93498 26.0656C11.5351 31.6658 20.5887 31.726 26.157 26.1575L25.7328 25.7332ZM6.35881 25.6409C4.84882 24.1371 3.70793 22.3037 3.02569 20.2848L2.45727 20.4768C3.16919 22.5836 4.35972 24.4968 5.93542 26.066L6.35881 25.6409ZM3.02569 20.2848C2.34346 18.2658 2.13846 16.1162 2.42679 14.0047L1.83231 13.9235C1.53143 16.1269 1.74535 18.37 2.45727 20.4768L3.02569 20.2848ZM2.42679 14.0046C2.45468 13.8003 2.56259 13.6155 2.72678 13.4907L2.36379 13.013C2.0729 13.234 1.88172 13.5615 1.83231 13.9235L2.42679 14.0046ZM2.72678 13.4907C2.89097 13.366 3.09798 13.3116 3.30228 13.3395L3.38344 12.745C3.02147 12.6955 2.65469 12.792 2.36379 13.013L2.72678 13.4907ZM3.30228 13.3395C3.50658 13.3673 3.69144 13.4753 3.81618 13.6394L4.29394 13.2765C4.07293 12.9856 3.74541 12.7944 3.38344 12.745L3.30228 13.3395ZM3.81618 13.6394C3.94093 13.8036 3.99534 14.0107 3.96745 14.215L4.56193 14.2961C4.61135 13.9342 4.51495 13.5674 4.29394 13.2765L3.81618 13.6394ZM3.96746 14.2149C3.7111 16.0892 3.89284 17.9974 4.4984 19.7897L5.06683 19.5976C4.49097 17.8933 4.31814 16.0786 4.56192 14.2962L3.96746 14.2149ZM4.4984 19.7897C5.10397 21.5819 6.11685 23.2093 7.45748 24.544L7.8808 24.1188C6.60592 22.8495 5.6427 21.3019 5.06683 19.5976L4.4984 19.7897ZM7.45704 24.5435C12.2316 29.3168 19.9211 29.348 24.635 24.6354L24.2108 24.2111C19.7351 28.6855 12.4255 28.6622 7.88124 24.1192L7.45704 24.5435ZM24.6351 24.6354C29.3475 19.9213 29.3163 12.2316 24.5432 7.45692L24.1188 7.88111C28.6616 12.4255 28.685 19.7354 24.2107 24.2112L24.6351 24.6354ZM24.5431 7.45686C19.7715 2.68655 12.0864 2.65237 7.37245 7.35908L7.79639 7.78367C12.272 3.31489 19.5775 3.34103 24.1189 7.88118L24.5431 7.45686ZM7.58322 7.87137L8.65725 7.87568L8.65966 7.27569L7.58563 7.27138L7.58322 7.87137ZM8.65705 7.87568C8.75908 7.87616 8.86001 7.89672 8.95409 7.93621L9.18629 7.38296C9.01955 7.31298 8.84067 7.27653 8.65985 7.27569L8.65705 7.87568ZM8.95409 7.93621C9.04816 7.97569 9.13354 8.03332 9.20535 8.1058L9.63159 7.68353C9.50433 7.55507 9.35302 7.45294 9.18629 7.38296L8.95409 7.93621ZM9.20535 8.1058C9.27715 8.17828 9.33398 8.2642 9.37258 8.35865L9.92798 8.13163C9.85956 7.96425 9.75885 7.81199 9.63159 7.68353L9.20535 8.1058ZM9.37258 8.35865C9.41119 8.45309 9.43081 8.55422 9.43034 8.65625L10.0303 8.65905C10.0312 8.47823 9.9964 8.29901 9.92798 8.13163L9.37258 8.35865ZM9.43034 8.65625C9.42986 8.75828 9.40929 8.85921 9.36981 8.95329L9.92306 9.18548C9.99304 9.01875 10.0295 8.83987 10.0303 8.65905L9.43034 8.65625ZM9.36981 8.95329C9.33033 9.04737 9.2727 9.13276 9.20022 9.20457L9.6225 9.6308C9.75096 9.50354 9.85309 9.35222 9.92306 9.18548L9.36981 8.95329ZM9.20022 9.20457C9.12774 9.27637 9.04183 9.3332 8.94739 9.37181L9.17441 9.9272C9.34179 9.85878 9.49405 9.75806 9.6225 9.6308L9.20022 9.20457ZM8.94739 9.37181C8.85295 9.41041 8.75183 9.43003 8.6498 9.42956L8.647 10.0296C8.82782 10.0304 9.00704 9.99562 9.17441 9.9272L8.94739 9.37181ZM8.64982 9.42956L4.99409 9.41233L4.99126 10.0123L8.64699 10.0296L8.64982 9.42956ZM4.99427 9.41233C4.78949 9.41124 4.59341 9.32933 4.44869 9.18442L4.02414 9.60839C4.28061 9.86522 4.62812 10.0104 4.99108 10.0123L4.99427 9.41233ZM4.44869 9.18442C4.30398 9.0395 4.22233 8.84331 4.22151 8.6385L3.62152 8.64089C3.62297 9.00385 3.76766 9.35156 4.02414 9.60839L4.44869 9.18442ZM4.22151 8.63816L4.20285 4.9852L3.60285 4.98826L3.62152 8.64123L4.22151 8.63816ZM4.20285 4.98513C4.2023 4.8831 4.22186 4.78196 4.2604 4.68749L3.70485 4.46085C3.63655 4.62827 3.60189 4.80751 3.60285 4.98833L4.20285 4.98513ZM4.2604 4.68749C4.29894 4.59302 4.35571 4.50707 4.42747 4.43454L4.00094 4.01255C3.87377 4.14109 3.77316 4.29342 3.70485 4.46085L4.2604 4.68749ZM4.42747 4.43454C4.49923 4.36201 4.58457 4.30432 4.67862 4.26477L4.44605 3.71168C4.27936 3.78177 4.12812 3.884 4.00094 4.01255L4.42747 4.43454ZM4.67862 4.26477C4.77267 4.22523 4.87359 4.20459 4.97561 4.20405L4.97241 3.60406C4.79159 3.60502 4.61273 3.64159 4.44605 3.71168L4.67862 4.26477ZM4.97561 4.20405C5.07763 4.2035 5.17877 4.22306 5.27323 4.2616L5.49989 3.70606C5.33247 3.63775 5.15323 3.60309 4.97241 3.60406L4.97561 4.20405ZM5.27323 4.2616C5.3677 4.30014 5.45365 4.35692 5.52618 4.42868L5.94818 4.00216C5.81964 3.87498 5.66731 3.77437 5.49989 3.70606L5.27323 4.2616ZM5.52618 4.42868C5.5987 4.50044 5.65639 4.58578 5.69594 4.67983L6.24903 4.44728C6.17895 4.28059 6.07672 4.12934 5.94818 4.00216L5.52618 4.42868ZM5.69594 4.67983C5.73548 4.77389 5.75612 4.87481 5.75666 4.97684L6.35665 4.97364C6.35569 4.79282 6.31912 4.61397 6.24903 4.44728L5.69594 4.67983ZM5.75666 4.97685L5.7624 6.04948L6.3624 6.04627L6.35665 4.97364L5.75666 4.97685ZM15.9986 9.47816C16.2047 9.47816 16.4023 9.56002 16.548 9.70572L16.9722 9.28146C16.714 9.02324 16.3638 8.87816 15.9986 8.87816V9.47816ZM16.548 9.70572C16.6937 9.85142 16.7755 10.049 16.7755 10.2551H17.3755C17.3755 9.88992 17.2305 9.53969 16.9722 9.28146L16.548 9.70572ZM16.7755 10.2551V15.5536H17.3755V10.2551H16.7755ZM16.8634 15.7658L20.1387 19.0397L20.5628 18.6153L17.2876 15.3414L16.8634 15.7658ZM20.1424 19.0434C20.2167 19.115 20.2759 19.2007 20.3167 19.2955L20.8678 19.0584C20.7956 18.8905 20.6906 18.7386 20.5591 18.6116L20.1424 19.0434ZM20.3167 19.2955C20.3574 19.3903 20.3789 19.4922 20.3798 19.5954L20.9798 19.5899C20.9781 19.407 20.9401 19.2264 20.8678 19.0584L20.3167 19.2955ZM20.3798 19.5954C20.3808 19.6985 20.3612 19.8008 20.3222 19.8963L20.8776 20.1233C20.9467 19.954 20.9815 19.7727 20.9798 19.5899L20.3798 19.5954ZM20.3222 19.8963C20.2831 19.9918 20.2255 20.0786 20.1526 20.1516L20.5771 20.5757C20.7063 20.4463 20.8084 20.2925 20.8776 20.1233L20.3222 19.8963ZM20.1526 20.1516C20.0797 20.2246 19.993 20.2823 19.8975 20.3214L20.125 20.8766C20.2942 20.8073 20.4478 20.705 20.5771 20.5757L20.1526 20.1516ZM19.8975 20.3214C19.802 20.3605 19.6997 20.3802 19.5966 20.3794L19.5917 20.9794C19.7745 20.9809 19.9558 20.9459 20.125 20.8766L19.8975 20.3214ZM19.5966 20.3794C19.4934 20.3785 19.3915 20.3572 19.2967 20.3165L19.0601 20.8679C19.2281 20.94 19.4088 20.9779 19.5917 20.9794L19.5966 20.3794ZM19.2967 20.3165C19.2019 20.2758 19.1161 20.2167 19.0444 20.1425L18.613 20.5595C18.7401 20.691 18.8921 20.7958 19.0601 20.8679L19.2967 20.3165ZM19.0409 20.1389L15.1353 16.2332L14.711 16.6575L18.6166 20.5631L19.0409 20.1389ZM15.2232 16.4453V10.2565H14.6232V16.4453H15.2232ZM15.2232 10.2565C15.2232 10.0505 15.305 9.85286 15.4507 9.70716L15.0264 9.2829C14.7682 9.54112 14.6232 9.89135 14.6232 10.2565H15.2232ZM15.4507 9.70716C15.5964 9.56145 15.794 9.4796 16.0001 9.4796V8.8796C15.6349 8.8796 15.2847 9.02467 15.0264 9.2829L15.4507 9.70716Z"  mask="url(#path-1-outside-1_129_1437)"/>
</svg>
