<svg width="32" height="32" viewBox="0 0 32 32" fill="none" xmlns="http://www.w3.org/2000/svg">
<path d="M14.4993 14.4699C14.4993 14.0721 14.6573 13.6906 14.9386 13.4093C15.2199 13.128 15.6014 12.9699 15.9993 12.9699C16.3971 12.9699 16.7786 13.128 17.0599 13.4093C17.3412 13.6906 17.4993 14.0721 17.4993 14.4699V23.4699C17.4993 23.8678 17.3412 24.2493 17.0599 24.5306C16.7786 24.8119 16.3971 24.9699 15.9993 24.9699C15.6014 24.9699 15.2199 24.8119 14.9386 24.5306C14.6573 24.2493 14.4993 23.8678 14.4993 23.4699V14.4699ZM15.9993 7.07645C15.6014 7.07645 15.2199 7.23448 14.9386 7.51579C14.6573 7.79709 14.4993 8.17862 14.4993 8.57645C14.4993 8.97427 14.6573 9.3558 14.9386 9.63711C15.2199 9.91841 15.6014 10.0764 15.9993 10.0764C16.3971 10.0764 16.7786 9.91841 17.0599 9.63711C17.3412 9.3558 17.4993 8.97427 17.4993 8.57645C17.4993 8.17862 17.3412 7.79709 17.0599 7.51579C16.7786 7.23448 16.3971 7.07645 15.9993 7.07645Z" fill="#0075EB"/>
<path fill-rule="evenodd" clip-rule="evenodd" d="M16 1C7.7155 1 1 7.7155 1 16C1 24.2845 7.7155 31 16 31C24.2845 31 31 24.2845 31 16C31 7.7155 24.2845 1 16 1ZM4 16C4 19.1826 5.26428 22.2348 7.51472 24.4853C9.76515 26.7357 12.8174 28 16 28C19.1826 28 22.2348 26.7357 24.4853 24.4853C26.7357 22.2348 28 19.1826 28 16C28 12.8174 26.7357 9.76515 24.4853 7.51472C22.2348 5.26428 19.1826 4 16 4C12.8174 4 9.76515 5.26428 7.51472 7.51472C5.26428 9.76515 4 12.8174 4 16Z" fill="#0075EB"/>
</svg>
