<svg width="32" height="32" viewBox="0 0 32 32" fill="none" xmlns="http://www.w3.org/2000/svg">
<path fill-rule="evenodd" clip-rule="evenodd" d="M1 7.42857C1 7.08757 1.13546 6.76055 1.37658 6.51943C1.6177 6.27831 1.94472 6.14285 2.28571 6.14285H29.7143C30.0553 6.14285 30.3823 6.27831 30.6234 6.51943C30.8645 6.76055 31 7.08757 31 7.42857C31 7.76956 30.8645 8.09659 30.6234 8.3377C30.3823 8.57882 30.0553 8.71428 29.7143 8.71428H2.28571C1.94472 8.71428 1.6177 8.57882 1.37658 8.3377C1.13546 8.09659 1 7.76956 1 7.42857ZM1 16C1 15.659 1.13546 15.332 1.37658 15.0909C1.6177 14.8497 1.94472 14.7143 2.28571 14.7143H21.1429C21.4838 14.7143 21.8109 14.8497 22.052 15.0909C22.2931 15.332 22.4286 15.659 22.4286 16C22.4286 16.341 22.2931 16.668 22.052 16.9091C21.8109 17.1503 21.4838 17.2857 21.1429 17.2857H2.28571C1.94472 17.2857 1.6177 17.1503 1.37658 16.9091C1.13546 16.668 1 16.341 1 16ZM1 24.5714C1 24.2304 1.13546 23.9034 1.37658 23.6623C1.6177 23.4212 1.94472 23.2857 2.28571 23.2857H10.8571C11.1981 23.2857 11.5252 23.4212 11.7663 23.6623C12.0074 23.9034 12.1429 24.2304 12.1429 24.5714C12.1429 24.9124 12.0074 25.2394 11.7663 25.4806C11.5252 25.7217 11.1981 25.8571 10.8571 25.8571H2.28571C1.94472 25.8571 1.6177 25.7217 1.37658 25.4806C1.13546 25.2394 1 24.9124 1 24.5714Z" fill="white"/>
</svg>
