<svg 
    width="32" 
    height="32"
    viewBox="0 0 32 32" 
    fill="none" 
    xmlns="http://www.w3.org/2000/svg"
>
    <path
        d="M15.5444 11.2C14.6608 11.2 13.9444 10.4837 13.9444 9.6C13.9444 8.71634 14.6608 8 15.5444 8C16.4281 8 17.1444 8.71634 17.1444 9.6C17.1444 10.4837 16.4281 11.2 15.5444 11.2Z" 
        fill="black" 
        stroke="none"
    />
    <path 
        fill="black"
        stroke="none"
        d="M15.5444 17.6C14.6608 17.6 13.9444 16.8836 13.9444 16C13.9444 15.1163 14.6608 14.4 15.5444 14.4C16.4281 14.4 17.1444 15.1163 17.1444 16C17.1444 16.8836 16.4281 17.6 15.5444 17.6Z" 
    />
    <path 
        fill="black"
        stroke="none"
        d="M15.5444 23.9999C14.6608 23.9999 13.9444 23.2836 13.9444 22.3999C13.9444 21.5163 14.6608 20.7999 15.5444 20.7999C16.4281 20.7999 17.1444 21.5163 17.1444 22.3999C17.1444 23.2836 16.4281 23.9999 15.5444 23.9999Z" 
    />
</svg>
