<svg width="32" height="32" viewBox="0 0 32 32" fill="none" xmlns="http://www.w3.org/2000/svg">
<path fill-rule="evenodd" clip-rule="evenodd" d="M15.4644 1C14.8305 1 14.3019 1 13.8689 1.02698C13.4262 1.04443 12.9896 1.13102 12.5768 1.28326C12.1013 1.46952 11.6693 1.74263 11.3053 2.08701C10.9414 2.43139 10.6526 2.84028 10.4556 3.29033C10.249 3.76242 10.1935 4.26149 10.1707 4.80372C10.1684 5.00203 10.1129 5.19654 10.0095 5.369C9.90613 5.54147 9.75815 5.68623 9.57947 5.78972C9.39554 5.88482 9.18909 5.93409 8.97952 5.93291C8.76995 5.93173 8.56414 5.88014 8.38141 5.78298C7.87426 5.5294 7.3899 5.32572 6.85426 5.25828C6.34419 5.19475 5.82589 5.22697 5.32897 5.35311C4.83204 5.47924 4.36622 5.69681 3.95811 5.9934C3.61304 6.25626 3.31607 6.57116 3.07914 6.92544C2.83697 7.26805 2.572 7.70102 2.25574 8.22033L2.22013 8.27967C1.90245 8.79898 1.6389 9.23195 1.44801 9.60153C1.24857 9.9873 1.09186 10.3677 1.03488 10.7885C0.898978 11.7637 1.17774 12.7501 1.80985 13.5307C2.13893 13.9367 2.56772 14.2321 3.05208 14.5207C3.23266 14.6218 3.38311 14.7647 3.48927 14.9361C3.59544 15.1074 3.65383 15.3014 3.65895 15.5C3.65383 15.6986 3.59544 15.8926 3.48927 16.0639C3.38311 16.2353 3.23266 16.3782 3.05208 16.4793C2.56772 16.7679 2.14035 17.0633 1.80985 17.4693C1.49661 17.8557 1.26682 18.2968 1.13361 18.7673C1.0004 19.2378 0.966364 19.7285 1.03346 20.2115C1.09186 20.6323 1.24714 21.0127 1.44658 21.3985C1.6389 21.768 1.90245 22.201 2.22013 22.7203L2.25574 22.7797C2.572 23.299 2.83697 23.732 3.07914 24.0746C3.33129 24.4293 3.60196 24.749 3.95811 25.0053C4.36612 25.3021 4.83189 25.5199 5.32882 25.6463C5.82574 25.7726 6.34409 25.8051 6.85426 25.7417C7.3899 25.6743 7.87426 25.472 8.38141 25.217C8.56392 25.12 8.76949 25.0685 8.97881 25.0673C9.18813 25.0661 9.39433 25.1153 9.57805 25.2103C9.75771 25.313 9.90663 25.4575 10.0106 25.6301C10.1146 25.8027 10.1702 25.9976 10.1721 26.1963C10.1935 26.7385 10.249 27.2376 10.457 27.7097C10.6537 28.1598 10.9422 28.5689 11.3059 28.9135C11.6696 29.2581 12.1015 29.5315 12.5768 29.7181C12.9899 29.88 13.4173 29.9433 13.8689 29.9717C14.3019 30 14.8305 30 15.4644 30H15.5356C16.1695 30 16.6981 30 17.1311 29.973C17.5842 29.9433 18.0101 29.88 18.4232 29.7167C18.8987 29.5305 19.3307 29.2574 19.6947 28.913C20.0586 28.5686 20.3474 28.1597 20.5444 27.7097C20.751 27.2376 20.8065 26.7385 20.8293 26.1963C20.8314 25.9977 20.8867 25.803 20.9901 25.6302C21.0935 25.4575 21.2416 25.3125 21.4205 25.2089C21.6046 25.114 21.8111 25.065 22.0207 25.0664C22.2302 25.0678 22.436 25.1197 22.6186 25.217C23.1257 25.4706 23.6101 25.6743 24.1457 25.7404C25.1757 25.8691 26.2174 25.6051 27.0419 25.0066C27.398 24.7476 27.6687 24.4293 27.9209 24.0746C28.163 23.732 28.428 23.299 28.7443 22.7797L28.7799 22.7203C29.0976 22.201 29.3611 21.768 29.552 21.3985C29.7514 21.0127 29.9081 20.631 29.9651 20.2115C30.101 19.2363 29.8223 18.2499 29.1902 17.4693C28.8611 17.0633 28.4323 16.7679 27.9479 16.4793C27.7673 16.3782 27.6169 16.2353 27.5107 16.0639C27.4046 15.8926 27.3462 15.6986 27.3411 15.5C27.3411 15.125 27.5576 14.7527 27.9479 14.5207C28.4323 14.2321 28.8597 13.9367 29.1902 13.5307C29.5034 13.1443 29.7332 12.7032 29.8664 12.2327C29.9996 11.7622 30.0336 11.2715 29.9665 10.7885C29.8987 10.374 29.7592 9.97298 29.5534 9.60153C29.3102 9.15338 29.0522 8.71254 28.7799 8.27967L28.7443 8.22033C28.484 7.78072 28.2094 7.34889 27.9209 6.92544C27.6839 6.57153 27.387 6.25707 27.0419 5.99474C26.6339 5.69792 26.1681 5.48011 25.6712 5.35374C25.1743 5.22738 24.6559 5.19494 24.1457 5.25828C23.6101 5.32572 23.1257 5.52805 22.6186 5.78298C22.436 5.8799 22.2305 5.93136 22.0212 5.93254C21.8119 5.93372 21.6057 5.88458 21.422 5.78972C21.2427 5.68656 21.0942 5.54193 20.9903 5.36945C20.8864 5.19696 20.8305 5.00228 20.8279 4.80372C20.8065 4.26149 20.751 3.76242 20.543 3.29033C20.3463 2.84015 20.0578 2.43108 19.6941 2.08647C19.3304 1.74186 18.8985 1.46847 18.4232 1.28191C18.0101 1.12005 17.5827 1.05665 17.1311 1.02833C16.6981 1 16.1695 1 15.5356 1H15.4644ZM13.3945 3.1514C13.5042 3.10823 13.6708 3.06912 14.0142 3.04619C14.366 3.02326 14.8219 3.02326 15.5 3.02326C16.1781 3.02326 16.634 3.02326 16.9858 3.04619C17.3292 3.06912 17.4958 3.10823 17.6055 3.1514C18.0429 3.3227 18.389 3.65047 18.57 4.06456C18.6269 4.19405 18.674 4.39772 18.6925 4.87926C18.7352 5.94754 19.3179 6.9767 20.3521 7.54186C21.3863 8.10837 22.6186 8.07061 23.6172 7.57154C24.0674 7.34628 24.2768 7.28288 24.425 7.26535C24.893 7.20679 25.3665 7.32663 25.7413 7.59851C25.8353 7.6673 25.9549 7.78465 26.1473 8.05442C26.3453 8.33228 26.5732 8.70591 26.9123 9.26163C27.2513 9.81735 27.4778 10.1923 27.6331 10.4918C27.7855 10.7845 27.8325 10.9409 27.8468 11.0529C27.9086 11.4961 27.7821 11.9444 27.4949 12.2992C27.4037 12.4112 27.2413 12.5514 26.8111 12.8077C25.8538 13.3769 25.2042 14.3697 25.2042 15.5C25.2042 16.6303 25.8538 17.6231 26.8111 18.1923C27.2413 18.4486 27.4037 18.5888 27.4949 18.7008C27.7827 19.0555 27.908 19.5033 27.8468 19.9471C27.8325 20.0591 27.7841 20.2169 27.6331 20.5082C27.4778 20.809 27.2513 21.1827 26.9123 21.7384C26.5732 22.2941 26.3439 22.6677 26.1473 22.9456C25.9549 23.2154 25.8353 23.3327 25.7413 23.4015C25.3665 23.6734 24.893 23.7932 24.425 23.7347C24.2768 23.7171 24.0688 23.6537 23.6172 23.4285C22.62 22.9294 21.3863 22.8916 20.3521 23.4568C19.3179 24.0233 18.7352 25.0525 18.6925 26.1207C18.674 26.6023 18.6269 26.806 18.57 26.9354C18.4805 27.1402 18.3492 27.3262 18.1837 27.4829C18.0182 27.6396 17.8218 27.7639 17.6055 27.8486C17.4958 27.8918 17.3292 27.9309 16.9858 27.9538C16.634 27.9767 16.1781 27.9767 15.5 27.9767C14.8219 27.9767 14.366 27.9767 14.0142 27.9538C13.6708 27.9309 13.5042 27.8918 13.3945 27.8486C13.1782 27.7639 12.9818 27.6396 12.8163 27.4829C12.6508 27.3262 12.5195 27.1402 12.43 26.9354C12.3731 26.806 12.3261 26.6023 12.3075 26.1207C12.2648 25.0525 11.6821 24.0233 10.6479 23.4581C9.61366 22.8916 8.38141 22.9294 7.38278 23.4285C6.93262 23.6537 6.7232 23.7171 6.57505 23.7347C6.10698 23.7932 5.63351 23.6734 5.25874 23.4015C5.16472 23.3327 5.04506 23.2154 4.85274 22.9456C4.58479 22.5507 4.32967 22.1481 4.08774 21.7384C3.74869 21.1827 3.52219 20.8077 3.36691 20.5082C3.21448 20.2155 3.16747 20.0591 3.15322 19.9471C3.09137 19.5039 3.21794 19.0556 3.50509 18.7008C3.59626 18.5888 3.75867 18.4486 4.18889 18.1923C5.1462 17.6231 5.79581 16.6303 5.79581 15.5C5.79581 14.3697 5.1462 13.3769 4.18889 12.8077C3.75867 12.5514 3.59626 12.4112 3.50509 12.2992C3.21794 11.9444 3.09137 11.4961 3.15322 11.0529C3.16747 10.9409 3.2159 10.7831 3.36691 10.4918C3.52219 10.191 3.74869 9.81735 4.08774 9.26163C4.42679 8.70591 4.65615 8.33228 4.85274 8.05442C5.04506 7.78465 5.16472 7.6673 5.25874 7.59851C5.63351 7.32663 6.10698 7.20679 6.57505 7.26535C6.7232 7.28288 6.93119 7.34628 7.38278 7.57154C8.37998 8.07061 9.61366 8.10837 10.6479 7.54186C11.6821 6.9767 12.2648 5.94754 12.3075 4.87926C12.3261 4.39772 12.3731 4.19405 12.43 4.06456C12.611 3.65047 12.9571 3.3227 13.3945 3.1514Z" fill="#F2F4F8"/>
<path fill-rule="evenodd" clip-rule="evenodd" d="M15.4999 9.28571C13.8518 9.28571 12.2712 9.94042 11.1058 11.1058C9.94036 12.2712 9.28564 13.8519 9.28564 15.5C9.28564 17.1481 9.94036 18.7288 11.1058 19.8942C12.2712 21.0596 13.8518 21.7143 15.4999 21.7143C17.1481 21.7143 18.7287 21.0596 19.8941 19.8942C21.0595 18.7288 21.7142 17.1481 21.7142 15.5C21.7142 13.8519 21.0595 12.2712 19.8941 11.1058C18.7287 9.94042 17.1481 9.28571 15.4999 9.28571ZM11.7714 15.5C11.7714 14.5111 12.1642 13.5627 12.8634 12.8635C13.5627 12.1643 14.5111 11.7714 15.4999 11.7714C16.4888 11.7714 17.4372 12.1643 18.1364 12.8635C18.8357 13.5627 19.2285 14.5111 19.2285 15.5C19.2285 16.4889 18.8357 17.4372 18.1364 18.1365C17.4372 18.8357 16.4888 19.2286 15.4999 19.2286C14.5111 19.2286 13.5627 18.8357 12.8634 18.1365C12.1642 17.4372 11.7714 16.4889 11.7714 15.5Z" fill="#F2F4F8"/>
</svg>
