<svg 
    width="32" 
    height="32" 
    viewBox="0 0 32 32" 
    fill="none" 
    xmlns="http://www.w3.org/2000/svg"
>
    <path 
        stroke="black" 
        stroke-width="2" 
        stroke-linecap="round" 
        stroke-linejoin="round"
        d="M5 9.33333H26.3333M13 14.6667V22.6667M18.3333 14.6667V22.6667M6.33333 9.33333L7.66667 25.3333C7.66667 26.0406 7.94762 26.7189 8.44772 27.219C8.94781 27.719 9.62609 28 10.3333 28H21C21.7072 28 22.3855 27.719 22.8856 27.219C23.3857 26.7189 23.6667 26.0406 23.6667 25.3333L25 9.33333M11.6667 9.33333V5.33333C11.6667 4.97971 11.8071 4.64057 12.0572 4.39052C12.3072 4.14048 12.6464 4 13 4H18.3333C18.687 4 19.0261 4.14048 19.2761 4.39052C19.5262 4.64057 19.6667 4.97971 19.6667 5.33333V9.33333" 
    />
</svg>
