<svg width="32" height="32" viewBox="0 0 32 32" fill="none" xmlns="http://www.w3.org/2000/svg">
<path fill-rule="evenodd" clip-rule="evenodd" d="M16 4.00001C9.37262 4.00001 4.00004 9.37259 4.00004 16C4.00004 22.6274 9.37262 28 16 28C22.6275 28 28 22.6274 28 16C28 9.37259 22.6275 4.00001 16 4.00001ZM1.33337 16C1.33337 7.89983 7.89986 1.33334 16 1.33334C24.1002 1.33334 30.6667 7.89983 30.6667 16C30.6667 24.1002 24.1002 30.6667 16 30.6667C7.89986 30.6667 1.33337 24.1002 1.33337 16Z" fill="white"/>
<path fill-rule="evenodd" clip-rule="evenodd" d="M16 6.66668C16.7364 6.66668 17.3334 7.26363 17.3334 8.00001V15.176L21.9297 17.4741C22.5883 17.8034 22.8553 18.6043 22.5259 19.263C22.1966 19.9216 21.3957 20.1886 20.7371 19.8592L15.4038 17.1926C14.952 16.9667 14.6667 16.505 14.6667 16V8.00001C14.6667 7.26363 15.2637 6.66668 16 6.66668Z" fill="white"/>
</svg>
